<svg
        xmlns="http://www.w3.org/2000/svg"
        xmlns:xlink="http://www.w3.org/1999/xlink"
        width="81px" height="112px">
    <path fill-rule="evenodd"  fill="rgb(32, 79, 255)"
          d="M40.500,-0.000 C18.168,-0.000 0.000,18.195 0.000,40.561 C0.000,68.317 36.244,109.065 37.787,110.786 C39.236,112.403 41.767,112.400 43.213,110.786 C44.756,109.065 81.000,68.317 81.000,40.561 C80.999,18.195 62.832,-0.000 40.500,-0.000 ZM40.500,60.968 C29.264,60.968 20.124,51.814 20.124,40.561 C20.124,29.308 29.264,20.153 40.500,20.153 C51.735,20.153 60.876,29.308 60.876,40.561 C60.876,51.814 51.735,60.968 40.500,60.968 Z"/>
</svg>