<svg width="303" height="112" viewBox="0 0 303 112" fill="none" xmlns="http://www.w3.org/2000/svg">
<path fill-rule="evenodd" clip-rule="evenodd" d="M40 0H247C277.928 0 303 25.073 303 56C303 86.928 277.928 112 247 112H41C37.214 66.872 69 66.928 69 36C69 5.073 46.351 10.138 40 0Z" fill="white"/>
<path d="M108.862 28.3965H107.166L106.533 32H104.925L105.558 28.3965H103.562V26.8848H105.821L106.261 24.3887H104.222V22.8594H106.533L107.175 19.2031H108.774L108.133 22.8594H109.838L110.479 19.2031H112.088L111.446 22.8594H113.371V24.3887H111.174L110.734 26.8848H112.703V28.3965H110.471L109.838 32H108.229L108.862 28.3965ZM107.43 26.8848H109.126L109.565 24.3887H107.86L107.43 26.8848ZM127.177 25.8916C127.177 27.1514 126.954 28.2559 126.509 29.2051C126.064 30.1543 125.425 30.8867 124.593 31.4023C123.767 31.918 122.818 32.1758 121.745 32.1758C120.685 32.1758 119.738 31.9209 118.906 31.4111C118.074 30.9014 117.43 30.1748 116.973 29.2314C116.516 28.2822 116.284 27.1924 116.279 25.9619V25.3291C116.279 24.0693 116.504 22.9619 116.955 22.0068C117.412 21.0459 118.054 20.3105 118.88 19.8008C119.712 19.2852 120.661 19.0273 121.728 19.0273C122.794 19.0273 123.74 19.2852 124.567 19.8008C125.399 20.3105 126.04 21.0459 126.491 22.0068C126.948 22.9619 127.177 24.0664 127.177 25.3203V25.8916ZM124.505 25.3115C124.505 23.9697 124.265 22.9502 123.784 22.2529C123.304 21.5557 122.618 21.207 121.728 21.207C120.843 21.207 120.16 21.5527 119.68 22.2441C119.199 22.9297 118.956 23.9375 118.95 25.2676V25.8916C118.95 27.1982 119.191 28.2119 119.671 28.9326C120.152 29.6533 120.843 30.0137 121.745 30.0137C122.63 30.0137 123.31 29.668 123.784 28.9766C124.259 28.2793 124.499 27.2656 124.505 25.9355V25.3115ZM130.893 32V19.2031H134.83C135.955 19.2031 136.96 19.458 137.845 19.9678C138.736 20.4717 139.43 21.1924 139.928 22.1299C140.426 23.0615 140.675 24.1221 140.675 25.3115V25.9004C140.675 27.0898 140.429 28.1475 139.937 29.0732C139.451 29.999 138.762 30.7168 137.871 31.2266C136.981 31.7363 135.976 31.9941 134.857 32H130.893ZM133.53 21.3389V29.8818H134.804C135.835 29.8818 136.623 29.5449 137.168 28.8711C137.713 28.1973 137.992 27.2334 138.003 25.9795V25.3027C138.003 24.002 137.734 23.0176 137.195 22.3496C136.656 21.6758 135.868 21.3389 134.83 21.3389H133.53ZM144.4 32V19.2031H148.338C149.463 19.2031 150.467 19.458 151.352 19.9678C152.243 20.4717 152.937 21.1924 153.435 22.1299C153.933 23.0615 154.182 24.1221 154.182 25.3115V25.9004C154.182 27.0898 153.936 28.1475 153.444 29.0732C152.958 29.999 152.269 30.7168 151.379 31.2266C150.488 31.7363 149.483 31.9941 148.364 32H144.4ZM147.037 21.3389V29.8818H148.311C149.342 29.8818 150.13 29.5449 150.675 28.8711C151.22 28.1973 151.499 27.2334 151.51 25.9795V25.3027C151.51 24.002 151.241 23.0176 150.702 22.3496C150.163 21.6758 149.375 21.3389 148.338 21.3389H147.037ZM165.606 26.4541H160.544V29.8818H166.485V32H157.907V19.2031H166.468V21.3389H160.544V24.3887H165.606V26.4541ZM177.531 26.4541H172.469V29.8818H178.41V32H169.832V19.2031H178.393V21.3389H172.469V24.3887H177.531V26.4541ZM193.383 32C193.266 31.7715 193.181 31.4873 193.128 31.1475C192.513 31.833 191.713 32.1758 190.729 32.1758C189.797 32.1758 189.024 31.9062 188.409 31.3672C187.799 30.8281 187.495 30.1484 187.495 29.3281C187.495 28.3203 187.867 27.5469 188.611 27.0078C189.361 26.4688 190.442 26.1963 191.854 26.1904H193.023V25.6455C193.023 25.2061 192.909 24.8545 192.68 24.5908C192.457 24.3271 192.103 24.1953 191.617 24.1953C191.189 24.1953 190.852 24.2979 190.606 24.5029C190.366 24.708 190.246 24.9893 190.246 25.3467H187.705C187.705 24.7959 187.875 24.2861 188.215 23.8174C188.555 23.3486 189.036 22.9824 189.657 22.7188C190.278 22.4492 190.975 22.3145 191.748 22.3145C192.92 22.3145 193.849 22.6104 194.535 23.2021C195.226 23.7881 195.572 24.6143 195.572 25.6807V29.8027C195.578 30.7051 195.704 31.3877 195.95 31.8506V32H193.383ZM191.283 30.2334C191.658 30.2334 192.003 30.1514 192.32 29.9873C192.636 29.8174 192.871 29.5918 193.023 29.3105V27.6758H192.074C190.802 27.6758 190.125 28.1152 190.043 28.9941L190.035 29.1436C190.035 29.46 190.146 29.7207 190.369 29.9258C190.591 30.1309 190.896 30.2334 191.283 30.2334ZM198.954 27.1748C198.954 25.7158 199.299 24.541 199.991 23.6504C200.688 22.7598 201.626 22.3145 202.803 22.3145C203.846 22.3145 204.658 22.6719 205.238 23.3867L205.343 22.4902H207.646V31.6836C207.646 32.5156 207.456 33.2393 207.075 33.8545C206.7 34.4697 206.17 34.9385 205.484 35.2607C204.798 35.583 203.996 35.7441 203.076 35.7441C202.379 35.7441 201.699 35.6035 201.037 35.3223C200.375 35.0469 199.874 34.6895 199.534 34.25L200.659 32.7031C201.292 33.4121 202.059 33.7666 202.962 33.7666C203.635 33.7666 204.16 33.585 204.535 33.2217C204.91 32.8643 205.097 32.3545 205.097 31.6924V31.1826C204.511 31.8447 203.741 32.1758 202.786 32.1758C201.643 32.1758 200.717 31.7305 200.008 30.8398C199.305 29.9434 198.954 28.7568 198.954 27.2803V27.1748ZM201.494 27.3594C201.494 28.2207 201.667 28.8975 202.012 29.3896C202.358 29.876 202.833 30.1191 203.436 30.1191C204.21 30.1191 204.763 29.8291 205.097 29.249V25.25C204.757 24.6699 204.21 24.3799 203.454 24.3799C202.844 24.3799 202.364 24.6289 202.012 25.127C201.667 25.625 201.494 26.3691 201.494 27.3594ZM215.783 32.1758C214.388 32.1758 213.252 31.748 212.373 30.8926C211.5 30.0371 211.063 28.8975 211.063 27.4736V27.2275C211.063 26.2725 211.248 25.4199 211.617 24.6699C211.986 23.9141 212.508 23.334 213.181 22.9297C213.861 22.5195 214.635 22.3145 215.502 22.3145C216.803 22.3145 217.825 22.7246 218.569 23.5449C219.319 24.3652 219.694 25.5283 219.694 27.0342V28.0713H213.638C213.721 28.6924 213.967 29.1904 214.377 29.5654C214.793 29.9404 215.317 30.1279 215.95 30.1279C216.929 30.1279 217.693 29.7734 218.244 29.0645L219.492 30.4619C219.111 31.001 218.596 31.4229 217.945 31.7275C217.295 32.0264 216.574 32.1758 215.783 32.1758ZM215.493 24.3711C214.989 24.3711 214.579 24.541 214.263 24.8809C213.952 25.2207 213.753 25.707 213.665 26.3398H217.198V26.1377C217.186 25.5752 217.034 25.1416 216.741 24.8369C216.448 24.5264 216.032 24.3711 215.493 24.3711ZM225.282 22.4902L225.361 23.5889C226.041 22.7393 226.952 22.3145 228.095 22.3145C229.103 22.3145 229.853 22.6104 230.345 23.2021C230.837 23.7939 231.089 24.6787 231.101 25.8564V32H228.561V25.918C228.561 25.3789 228.443 24.9893 228.209 24.749C227.975 24.5029 227.585 24.3799 227.04 24.3799C226.325 24.3799 225.789 24.6846 225.432 25.2939V32H222.892V22.4902H225.282ZM238.789 30.1279C239.258 30.1279 239.639 29.999 239.932 29.7412C240.225 29.4834 240.377 29.1406 240.389 28.7129H242.771C242.765 29.3574 242.589 29.9492 242.243 30.4883C241.898 31.0215 241.423 31.4375 240.82 31.7363C240.222 32.0293 239.56 32.1758 238.833 32.1758C237.474 32.1758 236.402 31.7451 235.616 30.8838C234.831 30.0166 234.439 28.8213 234.439 27.2979V27.1309C234.439 25.666 234.828 24.4971 235.608 23.624C236.387 22.751 237.456 22.3145 238.816 22.3145C240.005 22.3145 240.957 22.6543 241.672 23.334C242.393 24.0078 242.759 24.9072 242.771 26.0322H240.389C240.377 25.54 240.225 25.1416 239.932 24.8369C239.639 24.5264 239.252 24.3711 238.772 24.3711C238.18 24.3711 237.732 24.5879 237.427 25.0215C237.128 25.4492 236.979 26.1465 236.979 27.1133V27.377C236.979 28.3555 237.128 29.0586 237.427 29.4863C237.726 29.9141 238.18 30.1279 238.789 30.1279ZM249.572 28.4053L251.329 22.4902H254.054L250.231 33.4766L250.02 33.9775C249.452 35.2197 248.514 35.8408 247.207 35.8408C246.838 35.8408 246.463 35.7852 246.082 35.6738V33.749L246.469 33.7578C246.95 33.7578 247.307 33.6846 247.541 33.5381C247.782 33.3916 247.969 33.1484 248.104 32.8086L248.403 32.0264L245.072 22.4902H247.805L249.572 28.4053ZM106.393 52.3438H105.385V56H103.908V47.4688H105.385V51.0547H106.199L108.707 47.4688H110.523L107.594 51.5527L110.781 56H109L106.393 52.3438ZM116.622 49.6602H118.04V56H116.622V51.7695L114.137 56H112.72V49.6602H114.137V53.8906L116.622 49.6602ZM123.546 56.1172C122.644 56.1172 121.912 55.834 121.349 55.2676C120.791 54.6973 120.511 53.9395 120.511 52.9941V52.8184C120.511 52.1855 120.632 51.6211 120.875 51.125C121.121 50.625 121.464 50.2363 121.906 49.959C122.347 49.6816 122.839 49.543 123.382 49.543C124.246 49.543 124.912 49.8184 125.38 50.3691C125.853 50.9199 126.089 51.6992 126.089 52.707V53.2812H121.947C121.99 53.8047 122.164 54.2188 122.468 54.5234C122.777 54.8281 123.164 54.9805 123.629 54.9805C124.281 54.9805 124.812 54.7168 125.222 54.1895L125.99 54.9219C125.736 55.3008 125.396 55.5957 124.97 55.8066C124.548 56.0137 124.074 56.1172 123.546 56.1172ZM123.377 50.6855C122.986 50.6855 122.67 50.8223 122.427 51.0957C122.189 51.3691 122.037 51.75 121.97 52.2383H124.683V52.1328C124.652 51.6562 124.525 51.2969 124.302 51.0547C124.08 50.8086 123.771 50.6855 123.377 50.6855ZM128.508 56V49.6602H131.08C131.948 49.6602 132.608 49.8125 133.061 50.1172C133.514 50.418 133.741 50.8516 133.741 51.418C133.741 51.7109 133.649 51.9746 133.465 52.209C133.286 52.4395 133.018 52.6172 132.662 52.7422C133.077 52.8281 133.405 53.002 133.647 53.2637C133.889 53.5254 134.01 53.834 134.01 54.1895C134.01 54.7793 133.791 55.2285 133.354 55.5371C132.92 55.8457 132.295 56 131.479 56H128.508ZM129.932 53.2988V54.875H131.491C132.221 54.875 132.586 54.6133 132.586 54.0898C132.586 53.5625 132.215 53.2988 131.473 53.2988H129.932ZM129.932 52.2793H131.104C131.912 52.2793 132.317 52.041 132.317 51.5645C132.317 51.0645 131.934 50.8066 131.168 50.791H129.932V52.2793ZM146.102 52.4082C146.102 53.6348 145.871 54.5605 145.41 55.1855C144.953 55.8066 144.256 56.1172 143.318 56.1172C142.396 56.1172 141.701 55.8145 141.232 55.209C140.768 54.5996 140.529 53.6992 140.518 52.5078V51.0312C140.518 49.8047 140.746 48.8848 141.203 48.2715C141.664 47.6582 142.365 47.3516 143.307 47.3516C144.24 47.3516 144.936 47.6504 145.393 48.248C145.854 48.8457 146.09 49.7402 146.102 50.9316V52.4082ZM144.678 50.8145C144.678 50.0137 144.568 49.4277 144.35 49.0566C144.131 48.6816 143.783 48.4941 143.307 48.4941C142.842 48.4941 142.5 48.6719 142.281 49.0273C142.062 49.3789 141.947 49.9297 141.936 50.6797V52.6133C141.936 53.4102 142.047 54.0039 142.27 54.3945C142.492 54.7852 142.842 54.9805 143.318 54.9805C143.775 54.9805 144.113 54.8008 144.332 54.4414C144.551 54.0781 144.666 53.5117 144.678 52.7422V50.8145ZM154.298 56H148.561V55.0215L151.403 51.9219C151.813 51.4648 152.104 51.084 152.276 50.7793C152.452 50.4707 152.54 50.1621 152.54 49.8535C152.54 49.4473 152.425 49.1191 152.194 48.8691C151.968 48.6191 151.661 48.4941 151.274 48.4941C150.813 48.4941 150.456 48.6348 150.202 48.916C149.948 49.1973 149.821 49.582 149.821 50.0703H148.397C148.397 49.5508 148.514 49.084 148.749 48.6699C148.987 48.252 149.325 47.9277 149.762 47.6973C150.204 47.4668 150.712 47.3516 151.286 47.3516C152.114 47.3516 152.766 47.5605 153.243 47.9785C153.723 48.3926 153.964 48.9668 153.964 49.7012C153.964 50.127 153.843 50.5742 153.6 51.043C153.362 51.5078 152.97 52.0371 152.423 52.6309L150.337 54.8633H154.298V56ZM162.142 52.4082C162.142 53.6348 161.912 54.5605 161.451 55.1855C160.994 55.8066 160.296 56.1172 159.359 56.1172C158.437 56.1172 157.742 55.8145 157.273 55.209C156.808 54.5996 156.57 53.6992 156.558 52.5078V51.0312C156.558 49.8047 156.787 48.8848 157.244 48.2715C157.705 47.6582 158.406 47.3516 159.347 47.3516C160.281 47.3516 160.976 47.6504 161.433 48.248C161.894 48.8457 162.13 49.7402 162.142 50.9316V52.4082ZM160.718 50.8145C160.718 50.0137 160.609 49.4277 160.39 49.0566C160.171 48.6816 159.824 48.4941 159.347 48.4941C158.882 48.4941 158.541 48.6719 158.322 49.0273C158.103 49.3789 157.988 49.9297 157.976 50.6797V52.6133C157.976 53.4102 158.087 54.0039 158.31 54.3945C158.533 54.7852 158.882 54.9805 159.359 54.9805C159.816 54.9805 160.154 54.8008 160.373 54.4414C160.591 54.0781 160.707 53.5117 160.718 52.7422V50.8145ZM170.162 52.4082C170.162 53.6348 169.932 54.5605 169.471 55.1855C169.014 55.8066 168.317 56.1172 167.379 56.1172C166.457 56.1172 165.762 55.8145 165.293 55.209C164.829 54.5996 164.59 53.6992 164.579 52.5078V51.0312C164.579 49.8047 164.807 48.8848 165.264 48.2715C165.725 47.6582 166.426 47.3516 167.368 47.3516C168.301 47.3516 168.996 47.6504 169.454 48.248C169.914 48.8457 170.151 49.7402 170.162 50.9316V52.4082ZM168.739 50.8145C168.739 50.0137 168.629 49.4277 168.411 49.0566C168.192 48.6816 167.844 48.4941 167.368 48.4941C166.903 48.4941 166.561 48.6719 166.342 49.0273C166.123 49.3789 166.008 49.9297 165.996 50.6797V52.6133C165.996 53.4102 166.108 54.0039 166.33 54.3945C166.553 54.7852 166.903 54.9805 167.379 54.9805C167.836 54.9805 168.174 54.8008 168.393 54.4414C168.612 54.0781 168.727 53.5117 168.739 52.7422V50.8145ZM178.183 52.4082C178.183 53.6348 177.952 54.5605 177.491 55.1855C177.034 55.8066 176.337 56.1172 175.4 56.1172C174.478 56.1172 173.782 55.8145 173.314 55.209C172.849 54.5996 172.611 53.6992 172.599 52.5078V51.0312C172.599 49.8047 172.827 48.8848 173.284 48.2715C173.745 47.6582 174.446 47.3516 175.388 47.3516C176.321 47.3516 177.017 47.6504 177.474 48.248C177.935 48.8457 178.171 49.7402 178.183 50.9316V52.4082ZM176.759 50.8145C176.759 50.0137 176.65 49.4277 176.431 49.0566C176.212 48.6816 175.864 48.4941 175.388 48.4941C174.923 48.4941 174.581 48.6719 174.362 49.0273C174.144 49.3789 174.029 49.9297 174.017 50.6797V52.6133C174.017 53.4102 174.128 54.0039 174.351 54.3945C174.573 54.7852 174.923 54.9805 175.4 54.9805C175.857 54.9805 176.195 54.8008 176.413 54.4414C176.632 54.0781 176.747 53.5117 176.759 52.7422V50.8145ZM106.393 69.3438H105.385V73H103.908V64.4688H105.385V68.0547H106.199L108.707 64.4688H110.523L107.594 68.5527L110.781 73H109L106.393 69.3438ZM118.052 66.6602V73H116.628V67.8086H114.835L114.718 70.0176C114.643 71.0801 114.438 71.8438 114.102 72.3086C113.77 72.7695 113.261 73 112.573 73H112.134L112.128 71.8164L112.421 71.7871C112.733 71.7441 112.96 71.5547 113.1 71.2188C113.245 70.8789 113.337 70.2617 113.376 69.3672L113.493 66.6602H118.052ZM120.5 69.7715C120.5 69.1504 120.623 68.5918 120.869 68.0957C121.115 67.5957 121.461 67.2129 121.906 66.9473C122.351 66.6777 122.863 66.543 123.441 66.543C124.296 66.543 124.99 66.8184 125.521 67.3691C126.056 67.9199 126.345 68.6504 126.388 69.5605L126.394 69.8945C126.394 70.5195 126.273 71.0781 126.031 71.5703C125.793 72.0625 125.449 72.4434 125 72.7129C124.554 72.9824 124.039 73.1172 123.453 73.1172C122.558 73.1172 121.841 72.8203 121.302 72.2266C120.767 71.6289 120.5 70.834 120.5 69.8418V69.7715ZM121.923 69.8945C121.923 70.5469 122.058 71.0586 122.328 71.4297C122.597 71.7969 122.972 71.9805 123.453 71.9805C123.933 71.9805 124.306 71.793 124.572 71.418C124.841 71.043 124.976 70.4941 124.976 69.7715C124.976 69.1309 124.837 68.623 124.56 68.248C124.287 67.873 123.914 67.6855 123.441 67.6855C122.976 67.6855 122.607 67.8711 122.334 68.2422C122.06 68.6094 121.923 69.1602 121.923 69.8945ZM128.907 73V66.6602H131.479C132.346 66.6602 133.006 66.8125 133.459 67.1172C133.912 67.418 134.139 67.8516 134.139 68.418C134.139 68.7109 134.047 68.9746 133.864 69.209C133.684 69.4395 133.416 69.6172 133.061 69.7422C133.475 69.8281 133.803 70.002 134.045 70.2637C134.287 70.5254 134.409 70.834 134.409 71.1895C134.409 71.7793 134.19 72.2285 133.752 72.5371C133.319 72.8457 132.694 73 131.877 73H128.907ZM130.33 70.2988V71.875H131.889C132.62 71.875 132.985 71.6133 132.985 71.0898C132.985 70.5625 132.614 70.2988 131.871 70.2988H130.33ZM130.33 69.2793H131.502C132.311 69.2793 132.715 69.041 132.715 68.5645C132.715 68.0645 132.332 67.8066 131.567 67.791H130.33V69.2793ZM139.446 71.9805C139.802 71.9805 140.097 71.877 140.331 71.6699C140.566 71.4629 140.691 71.207 140.706 70.9023H142.048C142.032 71.2969 141.909 71.666 141.679 72.0098C141.448 72.3496 141.136 72.6191 140.741 72.8184C140.347 73.0176 139.921 73.1172 139.464 73.1172C138.577 73.1172 137.874 72.8301 137.355 72.2559C136.835 71.6816 136.575 70.8887 136.575 69.877V69.7305C136.575 68.7656 136.833 67.9941 137.349 67.416C137.864 66.834 138.568 66.543 139.458 66.543C140.212 66.543 140.825 66.7637 141.298 67.2051C141.775 67.6426 142.025 68.2188 142.048 68.9336H140.706C140.691 68.5703 140.566 68.2715 140.331 68.0371C140.101 67.8027 139.806 67.6855 139.446 67.6855C138.986 67.6855 138.63 67.8535 138.38 68.1895C138.13 68.5215 138.003 69.0273 137.999 69.707V69.9355C137.999 70.623 138.122 71.1367 138.368 71.4766C138.618 71.8125 138.978 71.9805 139.446 71.9805ZM146.576 70.4922H145.855V73H144.432V66.6602H145.855V69.1914H146.482L148.234 66.6602H149.992L147.701 69.6953L150.186 73H148.334L146.576 70.4922ZM156.126 66.6602H157.544V73H156.126V68.7695L153.641 73H152.223V66.6602H153.641V70.8906L156.126 66.6602ZM164.216 66.6602H165.634V73H164.216V68.7695L161.732 73H160.314V66.6602H161.732V70.8906L164.216 66.6602ZM164.884 64.2285C164.884 64.7207 164.712 65.1191 164.369 65.4238C164.025 65.7285 163.566 65.8809 162.992 65.8809C162.418 65.8809 161.959 65.7285 161.615 65.4238C161.271 65.1191 161.099 64.7207 161.099 64.2285H162.166C162.166 64.4863 162.238 64.6875 162.382 64.832C162.531 64.9727 162.734 65.043 162.992 65.043C163.25 65.043 163.451 64.9727 163.595 64.832C163.74 64.6875 163.812 64.4863 163.812 64.2285H164.884ZM175.142 71.9805C175.497 71.9805 175.792 71.877 176.027 71.6699C176.261 71.4629 176.386 71.207 176.402 70.9023H177.743C177.728 71.2969 177.605 71.666 177.374 72.0098C177.144 72.3496 176.831 72.6191 176.437 72.8184C176.042 73.0176 175.616 73.1172 175.159 73.1172C174.273 73.1172 173.57 72.8301 173.05 72.2559C172.53 71.6816 172.271 70.8887 172.271 69.877V69.7305C172.271 68.7656 172.529 67.9941 173.044 67.416C173.56 66.834 174.263 66.543 175.154 66.543C175.907 66.543 176.521 66.7637 176.993 67.2051C177.47 67.6426 177.72 68.2188 177.743 68.9336H176.402C176.386 68.5703 176.261 68.2715 176.027 68.0371C175.796 67.8027 175.501 67.6855 175.142 67.6855C174.681 67.6855 174.325 67.8535 174.075 68.1895C173.825 68.5215 173.698 69.0273 173.695 69.707V69.9355C173.695 70.623 173.818 71.1367 174.064 71.4766C174.314 71.8125 174.673 71.9805 175.142 71.9805ZM185.395 73H183.971V67.8086H181.498V73H180.074V66.6602H185.395V73ZM190.327 70.9609L191.616 66.6602H193.134L190.614 73.9609C190.227 75.0273 189.571 75.5605 188.645 75.5605C188.438 75.5605 188.21 75.5254 187.96 75.4551V74.3535L188.229 74.3711C188.589 74.3711 188.858 74.3047 189.038 74.1719C189.221 74.043 189.366 73.8242 189.471 73.5156L189.677 72.9707L187.45 66.6602H188.985L190.327 70.9609ZM197.679 71.9805C198.035 71.9805 198.33 71.877 198.564 71.6699C198.798 71.4629 198.923 71.207 198.939 70.9023H200.281C200.265 71.2969 200.142 71.666 199.912 72.0098C199.681 72.3496 199.369 72.6191 198.974 72.8184C198.58 73.0176 198.154 73.1172 197.697 73.1172C196.81 73.1172 196.107 72.8301 195.587 72.2559C195.068 71.6816 194.808 70.8887 194.808 69.877V69.7305C194.808 68.7656 195.066 67.9941 195.582 67.416C196.097 66.834 196.8 66.543 197.691 66.543C198.445 66.543 199.058 66.7637 199.531 67.2051C200.007 67.6426 200.257 68.2188 200.281 68.9336H198.939C198.923 68.5703 198.798 68.2715 198.564 68.0371C198.334 67.8027 198.039 67.6855 197.679 67.6855C197.218 67.6855 196.863 67.8535 196.613 68.1895C196.363 68.5215 196.236 69.0273 196.232 69.707V69.9355C196.232 70.623 196.355 71.1367 196.601 71.4766C196.851 71.8125 197.211 71.9805 197.679 71.9805ZM204.809 70.4922H204.088V73H202.664V66.6602H204.088V69.1914H204.715L206.467 66.6602H208.225L205.934 69.6953L208.418 73H206.567L204.809 70.4922ZM210.603 74.9219L209.835 74.4648C210.062 74.1094 210.216 73.7988 210.298 73.5332C210.384 73.2715 210.429 73.0039 210.433 72.7305V71.623H211.716L211.71 72.6484C211.706 73.0625 211.601 73.4766 211.394 73.8906C211.191 74.3086 210.927 74.6523 210.603 74.9219ZM224.012 65.2598L220.602 73H219.108L222.512 65.6113H218.1V64.4688H224.012V65.2598ZM109.199 85.4082C109.199 86.6348 108.969 87.5605 108.508 88.1855C108.051 88.8066 107.354 89.1172 106.416 89.1172C105.494 89.1172 104.799 88.8145 104.33 88.209C103.865 87.5996 103.627 86.6992 103.615 85.5078V84.0312C103.615 82.8047 103.844 81.8848 104.301 81.2715C104.762 80.6582 105.463 80.3516 106.404 80.3516C107.338 80.3516 108.033 80.6504 108.49 81.248C108.951 81.8457 109.188 82.7402 109.199 83.9316V85.4082ZM107.775 83.8145C107.775 83.0137 107.666 82.4277 107.447 82.0566C107.229 81.6816 106.881 81.4941 106.404 81.4941C105.939 81.4941 105.598 81.6719 105.379 82.0273C105.16 82.3789 105.045 82.9297 105.033 83.6797V85.6133C105.033 86.4102 105.145 87.0039 105.367 87.3945C105.59 87.7852 105.939 87.9805 106.416 87.9805C106.873 87.9805 107.211 87.8008 107.43 87.4414C107.648 87.0781 107.764 86.5117 107.775 85.7422V83.8145ZM116.475 85.959H117.536V87.1016H116.475V89H115.052V87.1016H111.366L111.325 86.2344L115.005 80.4688H116.475V85.959ZM112.819 85.959H115.052V82.3965L114.946 82.584L112.819 85.959ZM124.496 85.959H125.556V87.1016H124.496V89H123.072V87.1016H119.386L119.345 86.2344L123.025 80.4688H124.496V85.959ZM120.839 85.959H123.072V82.3965L122.966 82.584L120.839 85.959ZM133.534 84.084H134.402C134.839 84.0801 135.185 83.9668 135.439 83.7441C135.696 83.5215 135.825 83.1992 135.825 82.7773C135.825 82.3711 135.718 82.0566 135.503 81.834C135.292 81.6074 134.968 81.4941 134.53 81.4941C134.148 81.4941 133.833 81.6055 133.587 81.8281C133.341 82.0469 133.218 82.334 133.218 82.6895H131.794C131.794 82.252 131.909 81.8535 132.14 81.4941C132.374 81.1348 132.698 80.8555 133.112 80.6562C133.53 80.4531 133.997 80.3516 134.513 80.3516C135.364 80.3516 136.032 80.5664 136.517 80.9961C137.005 81.4219 137.249 82.0156 137.249 82.7773C137.249 83.1602 137.126 83.5215 136.88 83.8613C136.638 84.1973 136.323 84.4512 135.937 84.623C136.405 84.7832 136.761 85.0352 137.003 85.3789C137.249 85.7227 137.372 86.1328 137.372 86.6094C137.372 87.375 137.109 87.9844 136.581 88.4375C136.058 88.8906 135.368 89.1172 134.513 89.1172C133.693 89.1172 133.021 88.8984 132.497 88.4609C131.974 88.0234 131.712 87.4414 131.712 86.7148H133.136C133.136 87.0898 133.261 87.3945 133.511 87.6289C133.765 87.8633 134.105 87.9805 134.53 87.9805C134.972 87.9805 135.32 87.8633 135.573 87.6289C135.827 87.3945 135.954 87.0547 135.954 86.6094C135.954 86.1602 135.821 85.8145 135.556 85.5723C135.29 85.3301 134.896 85.209 134.372 85.209H133.534V84.084ZM141.555 84.084H142.422C142.859 84.0801 143.205 83.9668 143.459 83.7441C143.717 83.5215 143.846 83.1992 143.846 82.7773C143.846 82.3711 143.738 82.0566 143.523 81.834C143.312 81.6074 142.988 81.4941 142.551 81.4941C142.168 81.4941 141.854 81.6055 141.607 81.8281C141.361 82.0469 141.238 82.334 141.238 82.6895H139.814C139.814 82.252 139.93 81.8535 140.16 81.4941C140.395 81.1348 140.719 80.8555 141.133 80.6562C141.551 80.4531 142.018 80.3516 142.533 80.3516C143.385 80.3516 144.053 80.5664 144.537 80.9961C145.025 81.4219 145.27 82.0156 145.27 82.7773C145.27 83.1602 145.146 83.5215 144.9 83.8613C144.658 84.1973 144.344 84.4512 143.957 84.623C144.426 84.7832 144.781 85.0352 145.023 85.3789C145.27 85.7227 145.393 86.1328 145.393 86.6094C145.393 87.375 145.129 87.9844 144.602 88.4375C144.078 88.8906 143.389 89.1172 142.533 89.1172C141.713 89.1172 141.041 88.8984 140.518 88.4609C139.994 88.0234 139.732 87.4414 139.732 86.7148H141.156C141.156 87.0898 141.281 87.3945 141.531 87.6289C141.785 87.8633 142.125 87.9805 142.551 87.9805C142.992 87.9805 143.34 87.8633 143.594 87.6289C143.848 87.3945 143.975 87.0547 143.975 86.6094C143.975 86.1602 143.842 85.8145 143.576 85.5723C143.311 85.3301 142.916 85.209 142.393 85.209H141.555V84.084ZM151.966 85.4316C151.489 85.9355 150.932 86.1875 150.296 86.1875C149.546 86.1875 148.948 85.9258 148.503 85.4023C148.057 84.875 147.835 84.1836 147.835 83.3281C147.835 82.7656 147.948 82.2559 148.175 81.7988C148.401 81.3418 148.723 80.9863 149.141 80.7324C149.559 80.4785 150.044 80.3516 150.595 80.3516C151.454 80.3516 152.136 80.6719 152.639 81.3125C153.143 81.9531 153.395 82.8105 153.395 83.8848V84.2832C153.395 85.8223 153.048 86.9961 152.352 87.8047C151.657 88.6133 150.62 89.0234 149.241 89.0352H149.071V87.8574H149.276C150.116 87.8457 150.761 87.6445 151.21 87.2539C151.659 86.8594 151.911 86.252 151.966 85.4316ZM150.595 85.0742C150.88 85.0742 151.147 84.9922 151.397 84.8281C151.647 84.6641 151.841 84.4375 151.977 84.1484V83.5918C151.977 82.9629 151.848 82.457 151.591 82.0742C151.333 81.6914 150.999 81.5 150.589 81.5C150.179 81.5 149.85 81.6699 149.604 82.0098C149.362 82.3457 149.241 82.7715 149.241 83.2871C149.241 83.8223 149.364 84.2539 149.61 84.582C149.856 84.9102 150.184 85.0742 150.595 85.0742ZM164.174 85.4316C163.698 85.9355 163.141 86.1875 162.504 86.1875C161.754 86.1875 161.157 85.9258 160.711 85.4023C160.266 84.875 160.043 84.1836 160.043 83.3281C160.043 82.7656 160.157 82.2559 160.383 81.7988C160.61 81.3418 160.932 80.9863 161.35 80.7324C161.768 80.4785 162.252 80.3516 162.803 80.3516C163.662 80.3516 164.344 80.6719 164.848 81.3125C165.352 81.9531 165.604 82.8105 165.604 83.8848V84.2832C165.604 85.8223 165.256 86.9961 164.561 87.8047C163.866 88.6133 162.829 89.0234 161.45 89.0352H161.28V87.8574H161.485C162.325 87.8457 162.969 87.6445 163.418 87.2539C163.868 86.8594 164.12 86.252 164.174 85.4316ZM162.803 85.0742C163.088 85.0742 163.356 84.9922 163.606 84.8281C163.856 84.6641 164.049 84.4375 164.186 84.1484V83.5918C164.186 82.9629 164.057 82.457 163.799 82.0742C163.541 81.6914 163.207 81.5 162.797 81.5C162.387 81.5 162.059 81.6699 161.813 82.0098C161.571 82.3457 161.45 82.7715 161.45 83.2871C161.45 83.8223 161.573 84.2539 161.819 84.582C162.065 84.9102 162.393 85.0742 162.803 85.0742ZM173.53 82.7188C173.53 83.1367 173.423 83.5098 173.208 83.8379C172.993 84.1621 172.7 84.418 172.329 84.6055C172.775 84.8125 173.116 85.0957 173.355 85.4551C173.597 85.8145 173.718 86.2207 173.718 86.6738C173.718 87.4238 173.464 88.0195 172.956 88.4609C172.448 88.8984 171.773 89.1172 170.929 89.1172C170.081 89.1172 169.402 88.8965 168.89 88.4551C168.382 88.0137 168.128 87.4199 168.128 86.6738C168.128 86.2168 168.249 85.8066 168.491 85.4434C168.734 85.0801 169.073 84.8008 169.511 84.6055C169.144 84.418 168.853 84.1621 168.638 83.8379C168.427 83.5098 168.321 83.1367 168.321 82.7188C168.321 81.9922 168.556 81.416 169.025 80.9902C169.493 80.5645 170.126 80.3516 170.923 80.3516C171.724 80.3516 172.359 80.5645 172.827 80.9902C173.296 81.416 173.53 81.9922 173.53 82.7188ZM172.294 86.6035C172.294 86.1816 172.167 85.8418 171.913 85.584C171.663 85.3223 171.331 85.1914 170.917 85.1914C170.503 85.1914 170.171 85.3203 169.921 85.5781C169.675 85.8359 169.552 86.1777 169.552 86.6035C169.552 87.0215 169.673 87.3555 169.915 87.6055C170.161 87.8555 170.499 87.9805 170.929 87.9805C171.359 87.9805 171.693 87.8594 171.931 87.6172C172.173 87.375 172.294 87.0371 172.294 86.6035ZM172.112 82.7715C172.112 82.4004 172.005 82.0957 171.79 81.8574C171.575 81.6152 171.286 81.4941 170.923 81.4941C170.56 81.4941 170.273 81.6094 170.062 81.8398C169.851 82.0664 169.745 82.377 169.745 82.7715C169.745 83.1621 169.851 83.4727 170.062 83.7031C170.277 83.9336 170.566 84.0488 170.929 84.0488C171.292 84.0488 171.579 83.9336 171.79 83.7031C172.005 83.4727 172.112 83.1621 172.112 82.7715ZM177.824 84.084H178.691C179.129 84.0801 179.475 83.9668 179.729 83.7441C179.986 83.5215 180.115 83.1992 180.115 82.7773C180.115 82.3711 180.008 82.0566 179.793 81.834C179.582 81.6074 179.258 81.4941 178.82 81.4941C178.438 81.4941 178.123 81.6055 177.877 81.8281C177.631 82.0469 177.508 82.334 177.508 82.6895H176.084C176.084 82.252 176.199 81.8535 176.43 81.4941C176.664 81.1348 176.988 80.8555 177.402 80.6562C177.82 80.4531 178.287 80.3516 178.803 80.3516C179.654 80.3516 180.322 80.5664 180.807 80.9961C181.295 81.4219 181.539 82.0156 181.539 82.7773C181.539 83.1602 181.416 83.5215 181.17 83.8613C180.928 84.1973 180.613 84.4512 180.227 84.623C180.695 84.7832 181.051 85.0352 181.293 85.3789C181.539 85.7227 181.662 86.1328 181.662 86.6094C181.662 87.375 181.398 87.9844 180.871 88.4375C180.348 88.8906 179.658 89.1172 178.803 89.1172C177.982 89.1172 177.311 88.8984 176.787 88.4609C176.264 88.0234 176.002 87.4414 176.002 86.7148H177.426C177.426 87.0898 177.551 87.3945 177.801 87.6289C178.055 87.8633 178.395 87.9805 178.82 87.9805C179.262 87.9805 179.609 87.8633 179.863 87.6289C180.117 87.3945 180.244 87.0547 180.244 86.6094C180.244 86.1602 180.111 85.8145 179.846 85.5723C179.58 85.3301 179.186 85.209 178.662 85.209H177.824V84.084ZM184.579 84.7695L185.042 80.4688H189.624V81.6992H186.225L185.991 83.7383C186.386 83.5117 186.831 83.3984 187.327 83.3984C188.139 83.3984 188.77 83.6582 189.22 84.1777C189.673 84.6973 189.899 85.3965 189.899 86.2754C189.899 87.1426 189.649 87.834 189.149 88.3496C188.649 88.8613 187.964 89.1172 187.093 89.1172C186.311 89.1172 185.663 88.8965 185.147 88.4551C184.636 88.0098 184.358 87.4238 184.315 86.6973H185.692C185.747 87.1113 185.895 87.4297 186.137 87.6523C186.38 87.8711 186.696 87.9805 187.087 87.9805C187.524 87.9805 187.864 87.8242 188.106 87.5117C188.352 87.1992 188.475 86.7734 188.475 86.2344C188.475 85.7148 188.341 85.3047 188.071 85.0039C187.802 84.6992 187.43 84.5469 186.958 84.5469C186.7 84.5469 186.481 84.582 186.302 84.6523C186.122 84.7188 185.927 84.8516 185.716 85.0508L184.579 84.7695Z" fill="black"/>
<path fill-rule="evenodd" clip-rule="evenodd" d="M40.5 0C18.168 0 0 18.195 0 40.561C0 68.317 36.244 109.065 37.787 110.786C39.236 112.403 41.767 112.4 43.213 110.786C44.756 109.065 81 68.317 81 40.561C80.999 18.195 62.832 0 40.5 0ZM40.5 60.968C29.264 60.968 20.124 51.814 20.124 40.561C20.124 29.308 29.264 20.153 40.5 20.153C51.735 20.153 60.876 29.308 60.876 40.561C60.876 51.814 51.735 60.968 40.5 60.968Z" fill="#204FFF"/>
</svg>
